<svg viewBox="0 0 24 24" xmlns="http://www.w3.org/2000/svg"><path fill-rule="evenodd" clip-rule="evenodd" d="M12.0025 2.06445C12.9945 2.06445 13.9015 2.50745 14.6805 3.22745C16.1405 4.57645 17.4525 6.92445 18.5235 9.27045C19.6125 11.6555 20.5175 14.1845 21.1235 16.0195C21.7955 18.0525 20.9165 20.2175 19.1195 21.2955C18.1884 21.8565 17.0897 22.0724 16.0156 21.9053C14.9414 21.7382 13.9602 21.1988 13.2435 20.3815C12.8288 19.9067 12.4151 19.4311 12.0025 18.9545C11.5785 19.4445 11.1545 19.9315 10.7605 20.3815C10.0439 21.1986 9.06286 21.7378 7.98893 21.9049C6.915 22.072 5.81652 21.8562 4.88552 21.2955C3.08852 20.2175 2.20952 18.0525 2.88152 16.0195C3.48752 14.1845 4.39252 11.6555 5.48152 9.27045C6.55252 6.92445 7.86252 4.57645 9.32252 3.22745C10.1025 2.50745 11.0095 2.06445 12.0015 2.06445H12.0025ZM13.3185 17.4185C13.9485 16.6735 14.4885 16.0175 14.8025 15.5985C15.7425 14.3455 15.9835 12.7485 15.5165 11.4185C15.0305 10.0345 13.7895 8.99845 12.0025 8.99845C10.2155 8.99845 8.97452 10.0345 8.48852 11.4185C8.02152 12.7485 8.26152 14.3455 9.20252 15.5985C9.51552 16.0175 10.0555 16.6735 10.6865 17.4185C10.2065 17.9745 9.71452 18.5385 9.25652 19.0645C8.84859 19.529 8.29025 19.8352 7.67926 19.9296C7.06827 20.0239 6.44357 19.9003 5.91452 19.5805C4.88052 18.9605 4.41652 17.7485 4.78052 16.6465C5.37552 14.8465 6.25452 12.3925 7.30052 10.1015C8.36352 7.77145 9.53852 5.75145 10.6805 4.69645C11.1965 4.22045 11.6415 4.06445 12.0025 4.06445C12.3625 4.06445 12.8075 4.22045 13.3245 4.69645C14.4665 5.75145 15.6405 7.77245 16.7045 10.1015C17.7505 12.3925 18.6295 14.8465 19.2245 16.6465C19.5885 17.7485 19.1245 18.9595 18.0905 19.5805C17.5616 19.9001 16.9371 20.0235 16.3263 19.9292C15.7156 19.8348 15.1574 19.5287 14.7495 19.0645C14.2895 18.5395 13.7985 17.9745 13.3185 17.4185ZM12.0025 15.8765C11.5906 15.394 11.1904 14.9015 10.8025 14.3995C10.2425 13.6535 10.1395 12.7505 10.3755 12.0815C10.5925 11.4635 11.1015 10.9995 12.0025 10.9995C12.9025 10.9995 13.4125 11.4635 13.6295 12.0815C13.8645 12.7515 13.7615 13.6535 13.2025 14.3995C12.8149 14.9017 12.4148 15.3942 12.0025 15.8765Z"/></svg>