<svg viewBox="0 0 24 24" xmlns="http://www.w3.org/2000/svg"><path d="M9 18C9.28333 18 9.521 17.904 9.713 17.712C9.905 17.52 10.0007 17.2827 10 17C9.99933 16.7173 9.90333 16.48 9.712 16.288C9.52067 16.096 9.28333 16 9 16C8.71667 16 8.47933 16.096 8.288 16.288C8.09667 16.48 8.00067 16.7173 8 17C7.99933 17.2827 8.09533 17.5203 8.288 17.713C8.48067 17.9057 8.718 18.0013 9 18ZM12 18C12.2833 18 12.521 17.904 12.713 17.712C12.905 17.52 13.0007 17.2827 13 17C12.9993 16.7173 12.9033 16.48 12.712 16.288C12.5207 16.096 12.2833 16 12 16C11.7167 16 11.4793 16.096 11.288 16.288C11.0967 16.48 11.0007 16.7173 11 17C10.9993 17.2827 11.0953 17.5203 11.288 17.713C11.4807 17.9057 11.718 18.0013 12 18ZM15 18C15.2833 18 15.521 17.904 15.713 17.712C15.905 17.52 16.0007 17.2827 16 17C15.9993 16.7173 15.9033 16.48 15.712 16.288C15.5207 16.096 15.2833 16 15 16C14.7167 16 14.4793 16.096 14.288 16.288C14.0967 16.48 14.0007 16.7173 14 17C13.9993 17.2827 14.0953 17.5203 14.288 17.713C14.4807 17.9057 14.718 18.0013 15 18ZM9 15C9.28333 15 9.521 14.904 9.713 14.712C9.905 14.52 10.0007 14.2827 10 14C9.99933 13.7173 9.90333 13.48 9.712 13.288C9.52067 13.096 9.28333 13 9 13C8.71667 13 8.47933 13.096 8.288 13.288C8.09667 13.48 8.00067 13.7173 8 14C7.99933 14.2827 8.09533 14.5203 8.288 14.713C8.48067 14.9057 8.718 15.0013 9 15ZM12 15C12.2833 15 12.521 14.904 12.713 14.712C12.905 14.52 13.0007 14.2827 13 14C12.9993 13.7173 12.9033 13.48 12.712 13.288C12.5207 13.096 12.2833 13 12 13C11.7167 13 11.4793 13.096 11.288 13.288C11.0967 13.48 11.0007 13.7173 11 14C10.9993 14.2827 11.0953 14.5203 11.288 14.713C11.4807 14.9057 11.718 15.0013 12 15ZM15 15C15.2833 15 15.521 14.904 15.713 14.712C15.905 14.52 16.0007 14.2827 16 14C15.9993 13.7173 15.9033 13.48 15.712 13.288C15.5207 13.096 15.2833 13 15 13C14.7167 13 14.4793 13.096 14.288 13.288C14.0967 13.48 14.0007 13.7173 14 14C13.9993 14.2827 14.0953 14.5203 14.288 14.713C14.4807 14.9057 14.718 15.0013 15 15ZM7 12H17V11C17 9.61667 16.5123 8.43767 15.537 7.463C14.5617 6.48833 13.3827 6.00067 12 6C10.6173 5.99933 9.43833 6.487 8.463 7.463C7.48767 8.439 7 9.618 7 11V12ZM8.55 10.5C8.68333 9.65 9.071 8.93767 9.713 8.363C10.355 7.78833 11.1173 7.50067 12 7.5C12.8827 7.49933 13.6453 7.787 14.288 8.363C14.9307 8.939 15.318 9.65133 15.45 10.5H8.55ZM4 22C3.45 22 2.97933 21.8043 2.588 21.413C2.19667 21.0217 2.00067 20.5507 2 20V4C2 3.45 2.196 2.97933 2.588 2.588C2.98 2.19667 3.45067 2.00067 4 2H20C20.55 2 21.021 2.196 21.413 2.588C21.805 2.98 22.0007 3.45067 22 4V20C22 20.55 21.8043 21.021 21.413 21.413C21.0217 21.805 20.5507 22.0007 20 22H4ZM4 20H20V4H4V20Z"/></svg>