<svg viewBox="0 0 24 24" xmlns="http://www.w3.org/2000/svg"><path d="M19.25 2.75H4.75C4.21957 2.75 3.71086 2.96071 3.33579 3.33579C2.96071 3.71086 2.75 4.21957 2.75 4.75L2.7505 21.25H19.2505C19.7809 21.25 20.2896 21.0393 20.6647 20.6642C21.0398 20.2891 21.2505 19.7804 21.2505 19.25V4.75C21.2505 4.21957 21.0398 3.71086 20.6647 3.33579C20.2896 2.96071 19.7804 2.75 19.25 2.75ZM16.442 17.2035C16.2798 17.2031 16.1193 17.1708 15.9696 17.1083C15.8199 17.0459 15.684 16.9546 15.5696 16.8397C15.4552 16.7247 15.3646 16.5883 15.3029 16.4383C15.2412 16.2884 15.2096 16.1277 15.21 15.9655C15.2093 15.638 15.3387 15.3237 15.5698 15.0917C15.8008 14.8596 16.1145 14.7288 16.442 14.728C16.7703 14.728 17.0851 14.8584 17.3172 15.0905C17.5493 15.3227 17.6798 15.6375 17.6798 15.9657C17.6798 16.294 17.5493 16.6088 17.3172 16.841C17.0851 17.0731 16.7703 17.2035 16.442 17.2035Z" stroke-linecap="round" stroke-linejoin="round"/><path d="M11.4448 12.2026C12.0991 12.2157 12.7221 12.4848 13.1802 12.9521C13.6382 13.4194 13.8948 14.0477 13.8948 14.7021C13.8948 15.3565 13.6382 15.9848 13.1802 16.4521C12.7221 16.9194 12.0991 17.1885 11.4448 17.2016H7.32031V7.20312H11.4453C12.0996 7.21621 12.7226 7.4853 13.1807 7.95262C13.6387 8.41995 13.8953 9.04824 13.8953 9.70263C13.8953 10.357 13.6387 10.9853 13.1807 11.4526C12.7226 11.9199 12.0996 12.189 11.4453 12.2021L11.4448 12.2026ZM11.4448 12.2026H7.32031" stroke-linecap="round" stroke-linejoin="round"/></svg>