<svg viewBox="0 0 24 24" xmlns="http://www.w3.org/2000/svg"><path d="M21 3.6V20.4C21 20.5591 20.9368 20.7117 20.8243 20.8243C20.7117 20.9368 20.5591 21 20.4 21H3.6C3.44087 21 3.28826 20.9368 3.17574 20.8243C3.06321 20.7117 3 20.5591 3 20.4V3.6C3 3.44087 3.06321 3.28826 3.17574 3.17574C3.28826 3.06321 3.44087 3 3.6 3H20.4C20.5591 3 20.7117 3.06321 20.8243 3.17574C20.9368 3.28826 21 3.44087 21 3.6Z" stroke-width="1.5" stroke-linecap="round" stroke-linejoin="round"/><path d="M8.00174 6C8.00174 6 5.50174 9 8.00174 12C10.5017 15 8.00174 18 8.00174 18M12.0017 6C12.0017 6 9.50174 9 12.0017 12C14.5017 15 12.0017 18 12.0017 18M16.0017 6C16.0017 6 13.5017 9 16.0017 12C18.5017 15 16.0017 18 16.0017 18" stroke-width="1.5" stroke-linecap="round" stroke-linejoin="round"/></svg>