<svg viewBox="0 0 24 24" xmlns="http://www.w3.org/2000/svg"><path d="M10.6 16.95C10.8167 17.1333 11.046 17.2627 11.288 17.338C11.53 17.4133 11.7673 17.4507 12 17.45C12.4833 17.45 12.921 17.296 13.313 16.988C13.705 16.68 13.934 16.234 14 15.65C14.0833 14.8667 13.8417 14.2877 13.275 13.913C12.7083 13.5383 12.2833 13.0507 12 12.45C11.9167 12.6833 11.875 12.9 11.875 13.1C11.875 13.3 11.9 13.5167 11.95 13.75C12 14.0333 12.0583 14.3 12.125 14.55C12.1917 14.8 12.2 15.0667 12.15 15.35C12.0667 15.65 11.8833 15.9583 11.6 16.275C11.3167 16.5917 10.9833 16.8167 10.6 16.95ZM2 22V2H22V22H2ZM4 20H6V18H8.25C7.86667 17.5167 7.56233 17.0083 7.337 16.475C7.11167 15.9417 6.99933 15.4333 7 14.95C7 14.1833 7.08333 13.4627 7.25 12.788C7.41667 12.1133 7.721 11.459 8.163 10.825C8.605 10.191 9.21733 9.562 10 8.938C10.7827 8.314 11.7827 7.668 13 7C12.8167 7.73333 12.896 8.51267 13.238 9.338C13.58 10.1633 14.2173 10.9173 15.15 11.6C15.7 12 16.146 12.471 16.488 13.013C16.83 13.555 17.0007 14.2173 17 15C17 15.5833 16.9083 16.121 16.725 16.613C16.5417 17.105 16.3 17.5673 16 18H18V20H20V4H4V20Z"/></svg>