<svg viewBox="0 0 24 24" xmlns="http://www.w3.org/2000/svg"><path d="M6.53107 1.8457C6.53107 1.8457 5.75 7.31316 5.75 8.09422C5.75 8.87529 7.5074 10.4374 7.5074 10.4374L7.31213 20.86C7.31213 21.7222 8.01196 22.1534 8.87426 22.1534C9.73656 22.1534 10.4364 21.7222 10.4364 20.86L10.2411 10.4374C10.2411 10.4374 11.9985 8.84248 11.9985 8.09422C11.9985 7.34596 11.2175 1.8457 11.2175 1.8457H10.4364V6.92263C10.4364 7.0262 10.3952 7.12554 10.322 7.19877C10.2488 7.27201 10.1494 7.31316 10.0459 7.31316C9.94228 7.31316 9.84295 7.27201 9.76971 7.19877C9.69647 7.12554 9.65533 7.0262 9.65533 6.92263C9.65533 6.84999 9.38664 1.8457 9.38664 1.8457H8.36188C8.36188 1.8457 8.0932 6.84999 8.0932 6.92263C8.0932 7.0262 8.05205 7.12554 7.97881 7.19877C7.90557 7.27201 7.80624 7.31316 7.70266 7.31316C7.59909 7.31316 7.49975 7.27201 7.42651 7.19877C7.35328 7.12554 7.31213 7.0262 7.31213 6.92263V1.8457H6.53107ZM14.9033 1.89491C14.4433 2.00504 14.3417 2.49789 14.3417 3.04073V20.8592C14.3417 21.7215 15.0416 22.1526 15.9038 22.1526C16.7661 22.1526 17.4418 21.7207 17.4418 20.8592C17.4418 16.8859 16.6607 14.7676 16.6607 12.7798C16.6607 11.8832 18.247 10.7288 18.247 6.55553C18.247 4.00301 15.9851 1.89413 15.1228 1.89413C15.0416 1.89413 14.9689 1.87851 14.9033 1.89413V1.89491Z"/></svg>