<svg viewBox="0 0 24 24" xmlns="http://www.w3.org/2000/svg"><path d="M10 16H14C14.2833 16 14.521 15.904 14.713 15.712C14.905 15.52 15.0007 15.2827 15 15V13H13V14H11V10H13V11H15V9C15 8.71667 14.904 8.47933 14.712 8.288C14.52 8.09667 14.2827 8.00067 14 8H10C9.71667 8 9.47933 8.096 9.288 8.288C9.09667 8.48 9.00067 8.71733 9 9V15C9 15.2833 9.096 15.521 9.288 15.713C9.48 15.905 9.71733 16.0007 10 16ZM12 22C10.6167 22 9.31667 21.7373 8.1 21.212C6.88334 20.6867 5.825 19.9743 4.925 19.075C4.025 18.1757 3.31267 17.1173 2.788 15.9C2.26333 14.6827 2.00067 13.3827 2 12C1.99933 10.6173 2.262 9.31733 2.788 8.1C3.314 6.88267 4.02633 5.82433 4.925 4.925C5.82367 4.02567 6.882 3.31333 8.1 2.788C9.318 2.26267 10.618 2 12 2C13.382 2 14.682 2.26267 15.9 2.788C17.118 3.31333 18.1763 4.02567 19.075 4.925C19.9737 5.82433 20.6863 6.88267 21.213 8.1C21.7397 9.31733 22.002 10.6173 22 12C21.998 13.3827 21.7353 14.6827 21.212 15.9C20.6887 17.1173 19.9763 18.1757 19.075 19.075C18.1737 19.9743 17.1153 20.687 15.9 21.213C14.6847 21.739 13.3847 22.0013 12 22Z"/></svg>