<svg viewBox="0 0 24 24" xmlns="http://www.w3.org/2000/svg"><path d="M17.9991 9.75001C17.2638 9.75082 16.5444 9.53482 15.9311 9.129L9.12815 15.932C9.64069 16.7072 9.8471 17.6452 9.70738 18.564C9.56765 19.4827 9.09173 20.3169 8.3719 20.9047C7.65206 21.4926 6.7396 21.7921 5.81143 21.7454C4.88326 21.6987 4.0055 21.3089 3.34835 20.6518C2.6912 19.9947 2.30148 19.1169 2.25475 18.1887C2.20801 17.2606 2.5076 16.3481 3.09542 15.6283C3.68323 14.9084 4.5174 14.4325 5.43619 14.2928C6.35497 14.153 7.29291 14.3595 8.06815 14.872L14.8701 8.06801C14.4096 7.37129 14.1948 6.54077 14.2598 5.70811C14.3248 4.87546 14.6659 4.08833 15.229 3.47155C15.7921 2.85476 16.5451 2.44362 17.3684 2.30331C18.1917 2.16299 19.0383 2.30154 19.7739 2.69699C20.5096 3.09243 21.0921 3.72213 21.4293 4.48625C21.7664 5.25037 21.8388 6.10517 21.635 6.91511C21.4312 7.72505 20.9629 8.44377 20.3042 8.95731C19.6456 9.47086 18.8343 9.74984 17.9991 9.75001Z"/></svg>