<svg viewBox="0 0 24 24" xmlns="http://www.w3.org/2000/svg"><path d="M6.30338 4.57421C8.43963 7.24947 5.07656 8.41555 3.12799 8.66418C3.00887 9.84331 6.48888 13.1123 6.59082 13.8463C6.69276 14.5802 2.85973 17.8628 5.99956 20.4929C12.4627 23.4696 13.1967 21.2473 13.7472 20.4929C14.8889 20.8803 15.9084 19.9628 15.3783 18.5968C19.9453 15.1307 20.6472 12.6075 20.8829 10.661C20.522 10.7091 18.9101 10.6129 17.5869 9.31373C18.6214 7.53341 17.1538 7.43718 16.5524 3.8525C15.7584 3.99685 12.6309 3.8525 11.1874 2C9.31082 4.86294 6.66441 3.03451 6.30338 4.57421Z"/><path d="M6.30338 4.57421C8.43963 7.24947 5.07656 8.41555 3.12799 8.66418C3.00887 9.84331 6.48888 13.1123 6.59082 13.8463C8.4983 13.6684 12.6378 13.1415 13.936 12.4563C15.2342 11.7712 19.1082 10.974 20.8829 10.661C20.522 10.7091 18.9101 10.6129 17.5869 9.31373C18.6214 7.53341 17.1538 7.43718 16.5524 3.8525C15.7584 3.99685 12.6309 3.8525 11.1874 2C9.31082 4.86294 6.66441 3.03451 6.30338 4.57421Z"/></svg>