<svg viewBox="0 0 24 24" xmlns="http://www.w3.org/2000/svg"><path d="M11.9955 4C12.2607 4.00006 12.515 4.10545 12.7025 4.293L18.7025 10.293C18.8847 10.4816 18.9855 10.7342 18.9832 10.9964C18.9809 11.2586 18.8758 11.5094 18.6903 11.6948C18.5049 11.8802 18.2541 11.9854 17.9919 11.9877C17.7297 11.99 17.4771 11.8892 17.2885 11.707L12.9955 7.414L12.9955 19C12.9955 19.2652 12.8902 19.5196 12.7026 19.7071C12.5151 19.8946 12.2607 20 11.9955 20C11.7303 20 11.476 19.8946 11.2884 19.7071C11.1009 19.5196 10.9955 19.2652 10.9955 19L10.9955 7.414L6.70252 11.707C6.51392 11.8892 6.26132 11.99 5.99912 11.9877C5.73693 11.9854 5.48611 11.8802 5.30071 11.6948C5.1153 11.5094 5.01013 11.2586 5.00785 10.9964C5.00557 10.7342 5.10637 10.4816 5.28852 10.293L11.2885 4.293C11.476 4.10545 11.7303 4.00006 11.9955 4Z"/></svg>