<svg viewBox="0 0 24 24" xmlns="http://www.w3.org/2000/svg"><path d="M20 11.9994C19.9999 12.2646 19.8945 12.5189 19.707 12.7064L13.707 18.7064C13.5184 18.8886 13.2658 18.9894 13.0036 18.9871C12.7414 18.9848 12.4906 18.8797 12.3052 18.6942C12.1198 18.5088 12.0146 18.258 12.0123 17.9958C12.01 17.7336 12.1108 17.481 12.293 17.2924L16.586 12.9994L5 12.9994C4.73478 12.9994 4.48043 12.8941 4.29289 12.7065C4.10536 12.519 4 12.2646 4 11.9994C4 11.7342 4.10536 11.4799 4.29289 11.2923C4.48043 11.1048 4.73478 10.9994 5 10.9994L16.586 10.9994L12.293 6.70643C12.1108 6.51783 12.01 6.26523 12.0123 6.00303C12.0146 5.74083 12.1198 5.49002 12.3052 5.30461C12.4906 5.1192 12.7414 5.01404 13.0036 5.01176C13.2658 5.00948 13.5184 5.11027 13.707 5.29243L19.707 11.2924C19.8945 11.4799 19.9999 11.7342 20 11.9994Z"/></svg>