<svg viewBox="0 0 24 24" xmlns="http://www.w3.org/2000/svg"><path d="M11.9967 20C11.7315 19.9999 11.4772 19.8945 11.2897 19.707L5.28966 13.707C5.1075 13.5184 5.00671 13.2658 5.00899 13.0036C5.01127 12.7414 5.11644 12.4906 5.30185 12.3052C5.48725 12.1198 5.73807 12.0146 6.00026 12.0123C6.26246 12.01 6.51506 12.1108 6.70366 12.293L10.9967 16.586L10.9967 5C10.9967 4.73478 11.102 4.48043 11.2896 4.29289C11.4771 4.10536 11.7314 4 11.9967 4C12.2619 4 12.5162 4.10536 12.7038 4.29289C12.8913 4.48043 12.9967 4.73478 12.9967 5L12.9967 16.586L17.2897 12.293C17.4783 12.1108 17.7309 12.01 17.9931 12.0123C18.2553 12.0146 18.5061 12.1198 18.6915 12.3052C18.8769 12.4906 18.9821 12.7414 18.9843 13.0036C18.9866 13.2658 18.8858 13.5184 18.7037 13.707L12.7037 19.707C12.5162 19.8945 12.2619 19.9999 11.9967 20Z"/></svg>