<svg viewBox="0 0 24 24" xmlns="http://www.w3.org/2000/svg"><path d="M7.5 15.5H16.5V16.25C16.5 16.4667 16.571 16.646 16.713 16.788C16.855 16.93 17.034 17.0007 17.25 17C17.466 16.9993 17.6453 16.9283 17.788 16.787C17.9307 16.6457 18.0013 16.4667 18 16.25V12.85C18 12.35 17.8623 11.9043 17.587 11.513C17.3117 11.1217 16.9493 10.834 16.5 10.65V9C16.5 8.45 16.3043 7.97933 15.913 7.588C15.5217 7.19667 15.0507 7.00067 14.5 7H9.5C8.95 7 8.47933 7.196 8.088 7.588C7.69667 7.98 7.50067 8.45067 7.5 9V10.65C7.05 10.8333 6.68733 11.121 6.412 11.513C6.13667 11.905 5.99933 12.3507 6 12.85V16.25C6 16.4667 6.071 16.646 6.213 16.788C6.355 16.93 6.534 17.0007 6.75 17C6.966 16.9993 7.14533 16.9283 7.288 16.787C7.43067 16.6457 7.50133 16.4667 7.5 16.25V15.5ZM7.5 14V12.85C7.5 12.6167 7.58333 12.4167 7.75 12.25C7.91667 12.0833 8.11667 12 8.35 12H15.65C15.8833 12 16.0833 12.0833 16.25 12.25C16.4167 12.4167 16.5 12.6167 16.5 12.85V14H7.5ZM9 10.5V8.5H15V10.5H9ZM4 22C3.45 22 2.97933 21.8043 2.588 21.413C2.19667 21.0217 2.00067 20.5507 2 20V4C2 3.45 2.196 2.97933 2.588 2.588C2.98 2.19667 3.45067 2.00067 4 2H20C20.55 2 21.021 2.196 21.413 2.588C21.805 2.98 22.0007 3.45067 22 4V20C22 20.55 21.8043 21.021 21.413 21.413C21.0217 21.805 20.5507 22.0007 20 22H4ZM4 20H20V4H4V20Z"/></svg>