<svg viewBox="0 0 24 24" xmlns="http://www.w3.org/2000/svg"><path d="M9.375 11.25C9.27554 11.25 9.18016 11.2895 9.10983 11.3598C9.03951 11.4302 9 11.5255 9 11.625V14.625C9 14.7245 9.03951 14.8198 9.10983 14.8902C9.18016 14.9605 9.27554 15 9.375 15C9.47446 15 9.56984 14.9605 9.64017 14.8902C9.71049 14.8198 9.75 14.7245 9.75 14.625V11.625C9.75 11.5255 9.71049 11.4302 9.64017 11.3598C9.56984 11.2895 9.47446 11.25 9.375 11.25ZM12 6C14.0707 6 15.75 5.37 15.75 4.59375C15.75 3.8175 14.07 3.1875 12 3.1875C9.93 3.1875 8.25 3.8175 8.25 4.59375C8.25 5.37 9.92925 6 12 6ZM12 5.25C10.7573 5.25 9.75 4.914 9.75 4.5C9.75 4.086 10.7573 3.75 12 3.75C13.2428 3.75 14.25 4.086 14.25 4.5C14.25 4.914 13.2428 5.25 12 5.25Z"/><path d="M21.0458 5.424C20.6345 5.01278 20.08 4.77678 19.4985 4.7655C19.4663 3.957 19.0755 3.29475 18.6075 2.811C18.1253 2.31225 17.5005 1.93125 16.845 1.64475C15.5273 1.06875 13.8143 0.75 11.9993 0.75C10.1865 0.75 8.47277 1.06875 7.15577 1.64475C6.50027 1.93125 5.87477 2.31225 5.39327 2.811C4.90502 3.3165 4.50077 4.01625 4.50077 4.875V11.1645C4.15342 11.1131 3.79887 11.1437 3.46547 11.2539C3.13208 11.3641 2.8291 11.5508 2.58077 11.799L2.04977 12.3292C1.8408 12.5382 1.67503 12.7862 1.56193 13.0592C1.44884 13.3323 1.39063 13.6249 1.39062 13.9204C1.39063 14.2159 1.44884 14.5085 1.56193 14.7815C1.67503 15.0545 1.8408 15.3026 2.04977 15.5115L4.50077 17.9625V19.125C4.50077 19.9837 4.90502 20.6835 5.39327 21.1898C5.87552 21.6877 6.50102 22.068 7.15652 22.3552C8.47352 22.9312 10.1865 23.25 12.0008 23.25C13.5608 23.25 15.036 23.0145 16.2473 22.59C16.9763 22.3343 17.6633 21.9907 18.2175 21.5445C18.873 21.0165 19.5008 20.2043 19.5008 19.125V11.2125L21.5768 9.1365C21.7857 8.92756 21.9515 8.67951 22.0646 8.4065C22.1777 8.13349 22.2359 7.84088 22.2359 7.54537C22.2359 7.24987 22.1777 6.95726 22.0646 6.68425C21.9515 6.41124 21.7857 6.16319 21.5768 5.95425L21.0458 5.424ZM6.00077 14.16V7.45875C6.23627 7.62825 6.48902 7.779 6.75077 7.91325V10.875C6.75077 10.9745 6.79028 11.0698 6.8606 11.1402C6.93093 11.2105 7.02631 11.25 7.12577 11.25C7.22523 11.25 7.32061 11.2105 7.39094 11.1402C7.46126 11.0698 7.50077 10.9745 7.50077 10.875V8.24625C8.76527 8.73375 10.341 9 12.0008 9C13.8143 9 15.528 8.68125 16.8443 8.10525C17.5005 7.818 18.126 7.43775 18.6075 6.939C18.7665 6.77475 18.9165 6.59025 19.0463 6.38625C19.1904 6.29256 19.3622 6.2512 19.5332 6.26908C19.7041 6.28697 19.8637 6.36302 19.9853 6.4845L20.5163 7.0155C20.6569 7.15615 20.7359 7.34688 20.7359 7.54575C20.7359 7.74462 20.6569 7.93535 20.5163 8.076L18.0008 10.59V19.125C18.0008 19.578 17.7383 20.004 17.2763 20.376C17.0588 20.551 16.8003 20.7127 16.5008 20.8612V17.625C16.5008 17.5255 16.4613 17.4302 16.3909 17.3598C16.3206 17.2895 16.2252 17.25 16.1258 17.25C16.0263 17.25 15.9309 17.2895 15.8606 17.3598C15.7903 17.4302 15.7508 17.5255 15.7508 17.625V21.174C14.7233 21.534 13.4198 21.75 12.0008 21.75C8.68727 21.75 6.00077 20.5748 6.00077 19.125V17.3407L3.11027 14.451C3.04054 14.3813 2.98522 14.2986 2.94747 14.2076C2.90973 14.1165 2.8903 14.0189 2.8903 13.9204C2.8903 13.8218 2.90973 13.7242 2.94747 13.6332C2.98522 13.5421 3.04054 13.4594 3.11027 13.3898L3.64127 12.8595C3.78192 12.7189 3.97265 12.6399 4.17152 12.6399C4.37039 12.6399 4.56112 12.7189 4.70177 12.8595L6.00077 14.16ZM18.0008 4.875C18.0008 6.32475 15.3143 7.5 12.0008 7.5C8.68727 7.5 6.00077 6.32475 6.00077 4.875C6.00077 3.42525 8.68727 2.25 12.0008 2.25C15.3143 2.25 18.0008 3.42525 18.0008 4.875Z"/></svg>