<svg width="24" height="24" viewBox="0 0 24 24" fill="none" xmlns="http://www.w3.org/2000/svg">
<path d="M16.3444 17.0762C16.0775 17.1745 16.1196 18.0596 16.3866 18.1579C16.513 18.2 17.6368 18.2422 18.8871 18.2422C21.2753 18.2422 21.5001 18.186 21.5001 17.61C21.5001 17.034 21.2753 16.9779 18.8309 16.9919C17.5526 16.9919 16.4287 17.034 16.3444 17.0762Z" fill="#151515"/>
<path d="M7.10748 7.23334C6.7487 8.04531 6.05002 9.59373 5.57795 10.6889C5.10587 11.7842 4.55826 13.0116 4.38831 13.427C3.02873 16.4672 2.5 17.7323 2.5 17.9589C2.5 18.1478 2.70771 18.2422 3.16091 18.2422C3.68964 18.2422 3.85958 18.1478 3.99177 17.8079C4.08618 17.5813 4.42608 16.826 4.74709 16.1084C5.0681 15.4097 5.33247 14.8055 5.33247 14.7488C5.33247 14.711 5.57795 14.1446 5.88008 13.4836C6.18221 12.8227 6.59763 11.8597 6.82423 11.3499C8.12716 8.32856 8.22158 8.21526 8.56148 9.12165C8.93914 10.1413 11.6583 16.2783 12.1304 17.2036C12.508 17.9589 12.7158 18.1667 13.1501 18.2044C13.4522 18.2422 13.7543 18.2044 13.8299 18.11C13.962 17.9778 13.3389 16.4294 11.8283 13.1815C11.5828 12.6339 11.3751 12.1429 11.3751 12.1052C11.3751 12.0485 11.0729 11.3687 10.7142 10.5756C10.3554 9.80144 10.0532 9.12165 10.0532 9.065C10.0532 9.02723 9.71335 8.25303 9.29792 7.3844C8.316 5.25061 8.03275 5.23173 7.10748 7.23334Z" fill="#151515"/>
</svg>
