<svg width="24" height="24" viewBox="0 0 24 24" fill="none" xmlns="http://www.w3.org/2000/svg">
<path d="M4.32049 5.04876C3.92195 5.18575 3.44247 5.62785 3.23697 6.04504C3.11866 6.28788 3.09998 6.43732 3.09375 6.98527C3.09375 7.57058 3.11243 7.6702 3.26188 7.95041C3.50474 8.41741 3.97177 8.82214 4.40767 8.9529C4.71902 9.04008 4.83111 9.04631 5.13001 8.98404C5.57836 8.89064 5.95199 8.69761 6.18862 8.42364L6.38166 8.2057L6.23844 8.09362C6.05785 7.95041 5.94576 7.95041 5.87104 8.09985C5.76518 8.28665 5.19228 8.54194 4.8747 8.54194C4.12122 8.53572 3.49851 7.8321 3.49851 6.99149C3.49851 6.2692 4.01536 5.54067 4.58203 5.45973C5.11756 5.37878 5.6095 5.54067 5.85236 5.87691C5.95822 6.02013 6.06408 6.02013 6.23844 5.87691L6.37543 5.76483L6.21353 5.57181C5.98935 5.31028 5.68422 5.12348 5.28569 5.01763C4.86225 4.90555 4.71902 4.91178 4.32049 5.04876Z" fill="#151515"/>
<path d="M8.59074 5.13204C8.53469 5.24412 8.3977 5.56168 8.27316 5.83566C7.73763 7.06232 7.58195 7.41724 7.41382 7.78461C7.31418 8.00255 7.23323 8.18935 7.23323 8.2018C7.23323 8.22048 7.16473 8.38238 7.07755 8.56918C6.99037 8.75598 6.92188 8.94278 6.92188 8.97391C6.92188 9.01127 7.02151 9.04241 7.13982 9.04241C7.38268 9.04241 7.34532 9.1109 7.94935 7.7348C8.08012 7.44214 8.2607 7.03741 8.35411 6.83193C8.44751 6.62645 8.5596 6.35247 8.60942 6.22171C8.65301 6.09095 8.72773 5.95396 8.77132 5.9166C8.8585 5.84811 8.81491 5.76094 9.74275 7.85933L10.2534 9.01127L10.49 9.02995C10.6145 9.04241 10.7204 9.02373 10.7204 8.99259C10.7204 8.94901 10.079 7.46083 9.59953 6.39606C9.53726 6.25907 9.42517 5.99132 9.34422 5.80452C9.08268 5.18185 8.95191 4.96392 8.81491 4.94524C8.71528 4.93278 8.65924 4.9826 8.59074 5.13204Z" fill="#151515"/>
<path d="M12.6274 5.01858C12.26 5.13066 12.0483 5.29255 11.8801 5.58521C11.7058 5.87786 11.6809 6.16429 11.8116 6.41336C11.9735 6.7247 12.2662 6.91772 13.0321 7.20415C13.2875 7.29755 13.6113 7.45322 13.7483 7.54662C13.9662 7.68983 13.9973 7.73965 13.9911 7.9389C13.9787 8.33741 13.4992 8.58648 12.864 8.52421C12.4904 8.48685 12.2538 8.34986 12.123 8.1008C12.0483 7.95136 11.9922 7.92022 11.8179 7.92022C11.575 7.92022 11.5625 7.95758 11.6871 8.25024C11.8864 8.72969 12.6212 9.09707 13.2127 9.01612C14.1281 8.89159 14.7197 8.17552 14.4146 7.5653C14.2527 7.24774 13.96 7.05471 13.1567 6.73715C12.1853 6.35109 11.9673 6.0273 12.4157 5.64748C12.8827 5.26142 13.7794 5.42954 13.9413 5.94013C13.9662 6.02108 14.0347 6.05221 14.1904 6.05221C14.4395 6.05221 14.4581 5.97126 14.2776 5.61634C14.1343 5.32991 13.8728 5.13689 13.4867 5.01858C13.1442 4.91273 12.9574 4.91273 12.6274 5.01858Z" fill="#151515"/>
<path d="M16.9425 5.03725C16.793 5.28631 15.2176 8.94762 15.2425 8.9912C15.2923 9.07215 15.6223 9.04724 15.6908 8.96007C15.722 8.92271 15.9399 8.44948 16.1703 7.92021C16.4007 7.39094 16.656 6.81186 16.7308 6.64374C16.8117 6.46939 16.9176 6.22655 16.9674 6.09579C17.1168 5.74086 17.1417 5.75954 17.478 6.56902C17.5341 6.69978 17.6586 6.9862 17.7582 7.21037C17.8641 7.4283 17.945 7.62133 17.945 7.64001C17.945 7.65246 18.0384 7.86417 18.1568 8.11946C18.2689 8.36853 18.3809 8.63628 18.4058 8.711C18.4743 8.92893 18.6176 9.04102 18.8231 9.04102C19.0597 9.04102 19.0535 8.97252 18.7857 8.39344C18.6674 8.13814 18.4494 7.64001 18.2938 7.28509C17.3099 5.00611 17.2725 4.93139 17.1293 4.93139C17.067 4.93139 16.9798 4.98121 16.9425 5.03725Z" fill="#151515"/>
<path d="M10.3179 9.98219C10.2992 10.032 10.293 10.9536 10.2992 12.0308L10.3179 13.9922H11.252C12.0428 13.9922 12.2234 13.9735 12.4227 13.8739C12.7402 13.7182 13.064 13.382 13.2633 13.0021C13.419 12.7095 13.4314 12.6285 13.4314 11.9685C13.4252 11.1653 13.3505 10.9473 12.927 10.4741C12.5347 10.0445 12.2545 9.95106 11.2395 9.92615C10.5296 9.90747 10.3428 9.91992 10.3179 9.98219ZM12.2857 10.555C12.4787 10.6547 12.6219 10.7979 12.7651 11.0345C12.952 11.3521 12.9644 11.4019 12.9644 11.9685C12.9582 12.6784 12.8274 13.0021 12.4102 13.3197C12.1487 13.5252 12.1362 13.5252 11.4637 13.5252H10.7849V11.9685V10.4118H11.3952C11.9183 10.4118 12.0553 10.4367 12.2857 10.555Z" fill="#151515"/>
<path d="M14.4898 9.99465C14.4711 10.0382 14.4649 10.9536 14.4711 12.0308L14.4898 13.9922H15.922H17.3542L17.3729 13.7867C17.3854 13.6809 17.3854 13.5812 17.3729 13.575C17.3605 13.5688 16.8062 13.5501 16.1399 13.5314L14.9257 13.4941V12.8714V12.2487L15.7975 12.2176L16.6693 12.1864L16.6879 11.9872C16.7128 11.7381 16.6693 11.7257 15.6729 11.7008L14.9257 11.6883V11.0656V10.443L16.1399 10.4118C17.348 10.3807 17.3542 10.3807 17.3729 10.2375C17.4165 9.92615 17.348 9.9137 15.8784 9.9137C14.8447 9.9137 14.5084 9.93238 14.4898 9.99465Z" fill="#151515"/>
<path d="M18.5991 10.0508C18.5805 10.1317 18.5742 11.0471 18.5805 12.0932L18.5991 13.9923L19.801 14.011L21.0028 14.0234L20.9841 13.793L20.9654 13.5564L20.0189 13.5378L19.0662 13.5191L19.0537 11.732L19.035 9.94495L18.8358 9.92627C18.6676 9.90759 18.6303 9.9325 18.5991 10.0508Z" fill="#151515"/>
<path d="M4.51941 15.4362C4.4011 15.704 4.1707 16.2146 4.01502 16.5757C3.85934 16.9369 3.67875 17.3416 3.62271 17.4786C3.17436 18.4811 3 18.8983 3 18.973C3 19.0353 3.0685 19.0664 3.21795 19.0664C3.39231 19.0664 3.44835 19.0353 3.49194 18.9232C3.52308 18.8485 3.63516 18.5994 3.74103 18.3628C3.84689 18.1324 3.93407 17.9331 3.93407 17.9145C3.93407 17.902 4.01502 17.7152 4.11465 17.4973C4.21428 17.2793 4.35128 16.9618 4.42601 16.7937C4.85568 15.7974 4.88681 15.76 4.9989 16.0589C5.12344 16.3952 6.02014 18.4188 6.17582 18.7239C6.30036 18.973 6.36886 19.0415 6.51208 19.054C6.61172 19.0664 6.71135 19.054 6.73626 19.0228C6.77985 18.9792 6.57436 18.4686 6.07619 17.3977C5.99524 17.2171 5.92674 17.0552 5.92674 17.0427C5.92674 17.024 5.8271 16.7999 5.70879 16.5384C5.59047 16.2831 5.49084 16.0589 5.49084 16.0402C5.49084 16.0278 5.37875 15.7725 5.24176 15.4861C4.91795 14.7824 4.82454 14.7762 4.51941 15.4362Z" fill="#151515"/>
<path d="M8.13039 15.0374C8.11171 15.081 8.10548 15.9838 8.11171 17.0424L8.13039 18.9727H8.34834H8.56629L8.58497 16.9614L8.59742 14.9564H8.37948C8.25493 14.9564 8.14285 14.9938 8.13039 15.0374Z" fill="#151515"/>
<path d="M10.3179 15.0385C10.2992 15.0821 10.293 15.985 10.2992 17.0435L10.3179 18.9738H10.5358H10.7538L10.7725 18.0834L10.7912 17.1992H11.3952C11.9805 17.1992 12.0117 17.2054 12.1611 17.3673C12.4102 17.6475 12.5161 17.8468 12.7153 18.4259C12.8959 18.9676 12.8959 18.9738 13.1139 18.9925C13.282 19.0049 13.338 18.9863 13.338 18.9178C13.338 18.7621 12.9582 17.7472 12.7901 17.4358L12.6281 17.1432L12.8835 16.9065C13.1886 16.6263 13.2758 16.4271 13.2758 16.0348C13.2758 15.6674 13.0952 15.3686 12.7216 15.1382C12.4413 14.9576 12.4413 14.9576 11.3952 14.9576C10.6106 14.9576 10.3366 14.9763 10.3179 15.0385ZM12.4413 15.4931C12.678 15.6052 12.8399 15.8542 12.8399 16.1033C12.8399 16.3088 12.5659 16.6201 12.3417 16.6699C12.1985 16.7011 11.1772 16.726 10.8659 16.7073C10.8036 16.7011 10.7849 16.5267 10.7849 16.0473V15.3935H11.5073C12.049 15.3935 12.2857 15.4184 12.4413 15.4931Z" fill="#151515"/>
<path d="M14.5156 16.9802V19.0039L15.9665 18.9915L17.4112 18.9728L17.4299 18.7673C17.4424 18.6614 17.4424 18.5618 17.4299 18.5556C17.4175 18.5494 16.8632 18.5307 16.1969 18.512L14.9827 18.4746L14.9764 17.9454C14.964 17.1421 14.8893 17.2044 15.8731 17.1857L16.7262 17.167L16.7449 16.9678C16.7698 16.7125 16.7076 16.6938 15.7735 16.7187C15.3501 16.7249 15.0512 16.7063 15.0262 16.6689C14.9515 16.5568 14.964 15.4858 15.0387 15.4422C15.0761 15.4173 15.6303 15.3924 16.2779 15.3924H17.4424V15.1745V14.9566H15.979H14.5156V16.9802Z" fill="#151515"/>
<path d="M18.7128 18.5496C18.5944 18.5932 18.6131 18.9855 18.7314 19.029C18.7875 19.0477 19.2857 19.0664 19.8399 19.0664C20.8985 19.0664 20.9981 19.0415 20.9981 18.7862C20.9981 18.5309 20.8985 18.506 19.815 18.5122C19.2483 18.5122 18.7501 18.5309 18.7128 18.5496Z" fill="#151515"/>
</svg>
