<svg viewBox="0 0 24 24" xmlns="http://www.w3.org/2000/svg"><path d="M19.5 8.66667V7C19.5 5.625 18.375 4.5 17 4.5H13.6667C13.025 4.5 12.4417 4.75 12 5.15C11.5583 4.75 10.975 4.5 10.3333 4.5H7C5.625 4.5 4.5 5.625 4.5 7V8.66667C3.125 8.66667 2 9.79167 2 11.1667V15.3333C2 16.7083 3.125 17.8333 4.5 17.8333V19.5H6.16667V17.8333H17.8333V19.5H19.5V17.8333C20.875 17.8333 22 16.7083 22 15.3333V11.1667C22 9.79167 20.875 8.66667 19.5 8.66667ZM13.6667 6.16667H17C17.4583 6.16667 17.8333 6.54167 17.8333 7V9.31667C17.325 9.775 17 10.4333 17 11.1667V12.8333H12.8333V7C12.8333 6.54167 13.2083 6.16667 13.6667 6.16667ZM6.16667 7C6.16667 6.54167 6.54167 6.16667 7 6.16667H10.3333C10.7917 6.16667 11.1667 6.54167 11.1667 7V12.8333H7V11.1667C7 10.4333 6.675 9.775 6.16667 9.31667V7ZM20.3333 15.3333C20.3333 15.7917 19.9583 16.1667 19.5 16.1667H4.5C4.04167 16.1667 3.66667 15.7917 3.66667 15.3333V11.1667C3.66667 10.7083 4.04167 10.3333 4.5 10.3333C4.95833 10.3333 5.33333 10.7083 5.33333 11.1667V14.5H18.6667V11.1667C18.6667 10.7083 19.0417 10.3333 19.5 10.3333C19.9583 10.3333 20.3333 10.7083 20.3333 11.1667V15.3333Z"/></svg>