<svg viewBox="0 0 24 24" xmlns="http://www.w3.org/2000/svg"><path d="M2.75 15.625V20.375C2.75 20.6402 2.85536 20.8946 3.04289 21.0821C3.23043 21.2696 3.48478 21.375 3.75 21.375H20.25C20.5152 21.375 20.7696 21.2696 20.9571 21.0821C21.1446 20.8946 21.25 20.6402 21.25 20.375V10.125L12.25 2.625H11.75L2.75 10.125V13.125L11.75 17.895H12.25L17.75 14.935V11.125C17.7378 10.9965 17.6812 10.8763 17.5899 10.7851C17.4987 10.6938 17.3785 10.6372 17.25 10.625H6.75C6.62187 10.6381 6.50218 10.695 6.4111 10.7861C6.32003 10.8772 6.26313 10.9969 6.25 11.125C6.225 11.375 6.25 12.585 6.25 12.585" stroke-linecap="round" stroke-linejoin="round"/></svg>